<svg id="visual" viewBox="0 0 960 300" width="960" height="300" xmlns="http://www.w3.org/2000/svg" xmlns:xlink="http://www.w3.org/1999/xlink" version="1.1"><rect x="0" y="0" width="960" height="300" fill="#252525"></rect><path d="M0 160L22.8 164.2C45.7 168.3 91.3 176.7 137 170.7C182.7 164.7 228.3 144.3 274 135.2C319.7 126 365.3 128 411.2 143.7C457 159.3 503 188.7 548.8 193.8C594.7 199 640.3 180 686 176.2C731.7 172.3 777.3 183.7 823 181.8C868.7 180 914.3 165 937.2 157.5L960 150L960 0L937.2 0C914.3 0 868.7 0 823 0C777.3 0 731.7 0 686 0C640.3 0 594.7 0 548.8 0C503 0 457 0 411.2 0C365.3 0 319.7 0 274 0C228.3 0 182.7 0 137 0C91.3 0 45.7 0 22.8 0L0 0Z" fill="#fa7268"></path><path d="M0 105L22.8 101.7C45.7 98.3 91.3 91.7 137 85.2C182.7 78.7 228.3 72.3 274 80.5C319.7 88.7 365.3 111.3 411.2 118.5C457 125.7 503 117.3 548.8 121.2C594.7 125 640.3 141 686 150.2C731.7 159.3 777.3 161.7 823 158.5C868.7 155.3 914.3 146.7 937.2 142.3L960 138L960 0L937.2 0C914.3 0 868.7 0 823 0C777.3 0 731.7 0 686 0C640.3 0 594.7 0 548.8 0C503 0 457 0 411.2 0C365.3 0 319.7 0 274 0C228.3 0 182.7 0 137 0C91.3 0 45.7 0 22.8 0L0 0Z" fill="#fe5a4c"></path><path d="M0 72L22.8 81.8C45.7 91.7 91.3 111.3 137 110.5C182.7 109.7 228.3 88.3 274 82.2C319.7 76 365.3 85 411.2 92C457 99 503 104 548.8 105C594.7 106 640.3 103 686 93.5C731.7 84 777.3 68 823 58.7C868.7 49.3 914.3 46.7 937.2 45.3L960 44L960 0L937.2 0C914.3 0 868.7 0 823 0C777.3 0 731.7 0 686 0C640.3 0 594.7 0 548.8 0C503 0 457 0 411.2 0C365.3 0 319.7 0 274 0C228.3 0 182.7 0 137 0C91.3 0 45.7 0 22.8 0L0 0Z" fill="#ff3c2d"></path><path d="M0 65L22.8 59.8C45.7 54.7 91.3 44.3 137 38.8C182.7 33.3 228.3 32.7 274 39.7C319.7 46.7 365.3 61.3 411.2 66.3C457 71.3 503 66.7 548.8 63C594.7 59.3 640.3 56.7 686 57.2C731.7 57.7 777.3 61.3 823 60.3C868.7 59.3 914.3 53.7 937.2 50.8L960 48L960 0L937.2 0C914.3 0 868.7 0 823 0C777.3 0 731.7 0 686 0C640.3 0 594.7 0 548.8 0C503 0 457 0 411.2 0C365.3 0 319.7 0 274 0C228.3 0 182.7 0 137 0C91.3 0 45.7 0 22.8 0L0 0Z" fill="#ff0000"></path></svg>