<svg id="visual" viewBox="0 0 960 300" width="960" height="300" xmlns="http://www.w3.org/2000/svg" xmlns:xlink="http://www.w3.org/1999/xlink" version="1.1"><rect x="0" y="0" width="960" height="300" fill="#252525"></rect><path d="M0 115L12.3 117.3C24.7 119.7 49.3 124.3 74 126C98.7 127.7 123.3 126.3 148 116.5C172.7 106.7 197.3 88.3 221.8 80.5C246.3 72.7 270.7 75.3 295.2 85.3C319.7 95.3 344.3 112.7 369 111.7C393.7 110.7 418.3 91.3 443 89.3C467.7 87.3 492.3 102.7 517 105.8C541.7 109 566.3 100 591 98.3C615.7 96.7 640.3 102.3 664.8 110.5C689.3 118.7 713.7 129.3 738.2 132.8C762.7 136.3 787.3 132.7 812 122.2C836.7 111.7 861.3 94.3 886 89.8C910.7 85.3 935.3 93.7 947.7 97.8L960 102L960 301L947.7 301C935.3 301 910.7 301 886 301C861.3 301 836.7 301 812 301C787.3 301 762.7 301 738.2 301C713.7 301 689.3 301 664.8 301C640.3 301 615.7 301 591 301C566.3 301 541.7 301 517 301C492.3 301 467.7 301 443 301C418.3 301 393.7 301 369 301C344.3 301 319.7 301 295.2 301C270.7 301 246.3 301 221.8 301C197.3 301 172.7 301 148 301C123.3 301 98.7 301 74 301C49.3 301 24.7 301 12.3 301L0 301Z" fill="#0091ff"></path><path d="M0 133L12.3 138C24.7 143 49.3 153 74 160.8C98.7 168.7 123.3 174.3 148 167C172.7 159.7 197.3 139.3 221.8 134C246.3 128.7 270.7 138.3 295.2 148.3C319.7 158.3 344.3 168.7 369 174.7C393.7 180.7 418.3 182.3 443 180.2C467.7 178 492.3 172 517 162.7C541.7 153.3 566.3 140.7 591 136.7C615.7 132.7 640.3 137.3 664.8 140.5C689.3 143.7 713.7 145.3 738.2 151.2C762.7 157 787.3 167 812 167.2C836.7 167.3 861.3 157.7 886 159.7C910.7 161.7 935.3 175.3 947.7 182.2L960 189L960 301L947.7 301C935.3 301 910.7 301 886 301C861.3 301 836.7 301 812 301C787.3 301 762.7 301 738.2 301C713.7 301 689.3 301 664.8 301C640.3 301 615.7 301 591 301C566.3 301 541.7 301 517 301C492.3 301 467.7 301 443 301C418.3 301 393.7 301 369 301C344.3 301 319.7 301 295.2 301C270.7 301 246.3 301 221.8 301C197.3 301 172.7 301 148 301C123.3 301 98.7 301 74 301C49.3 301 24.7 301 12.3 301L0 301Z" fill="#a271ec"></path><path d="M0 188L12.3 186.3C24.7 184.7 49.3 181.3 74 184.8C98.7 188.3 123.3 198.7 148 202.7C172.7 206.7 197.3 204.3 221.8 207.3C246.3 210.3 270.7 218.7 295.2 224.3C319.7 230 344.3 233 369 230.8C393.7 228.7 418.3 221.3 443 212.7C467.7 204 492.3 194 517 197.2C541.7 200.3 566.3 216.7 591 214.7C615.7 212.7 640.3 192.3 664.8 191.7C689.3 191 713.7 210 738.2 221C762.7 232 787.3 235 812 228.2C836.7 221.3 861.3 204.7 886 201.5C910.7 198.3 935.3 208.7 947.7 213.8L960 219L960 301L947.7 301C935.3 301 910.7 301 886 301C861.3 301 836.7 301 812 301C787.3 301 762.7 301 738.2 301C713.7 301 689.3 301 664.8 301C640.3 301 615.7 301 591 301C566.3 301 541.7 301 517 301C492.3 301 467.7 301 443 301C418.3 301 393.7 301 369 301C344.3 301 319.7 301 295.2 301C270.7 301 246.3 301 221.8 301C197.3 301 172.7 301 148 301C123.3 301 98.7 301 74 301C49.3 301 24.7 301 12.3 301L0 301Z" fill="#e641b6"></path><path d="M0 279L12.3 280.2C24.7 281.3 49.3 283.7 74 273.2C98.7 262.7 123.3 239.3 148 239.2C172.7 239 197.3 262 221.8 266.2C246.3 270.3 270.7 255.7 295.2 252.7C319.7 249.7 344.3 258.3 369 257.7C393.7 257 418.3 247 443 241.2C467.7 235.3 492.3 233.7 517 234.3C541.7 235 566.3 238 591 246.3C615.7 254.7 640.3 268.3 664.8 272.8C689.3 277.3 713.7 272.7 738.2 272.8C762.7 273 787.3 278 812 275.3C836.7 272.7 861.3 262.3 886 262.7C910.7 263 935.3 274 947.7 279.5L960 285L960 301L947.7 301C935.3 301 910.7 301 886 301C861.3 301 836.7 301 812 301C787.3 301 762.7 301 738.2 301C713.7 301 689.3 301 664.8 301C640.3 301 615.7 301 591 301C566.3 301 541.7 301 517 301C492.3 301 467.7 301 443 301C418.3 301 393.7 301 369 301C344.3 301 319.7 301 295.2 301C270.7 301 246.3 301 221.8 301C197.3 301 172.7 301 148 301C123.3 301 98.7 301 74 301C49.3 301 24.7 301 12.3 301L0 301Z" fill="#ff006a"></path></svg>